<svg xmlns="http://www.w3.org/2000/svg" viewBox="-76.9 24.1 595.2 595.1">
  <path d="M513 279.3L454.7 221l11.5-11.5c3.2-3.2 5.1-7.8 5.1-12.4s-1.8-9.1-5.1-12.4l-33-33c-7.8-7.8-16.6-13.8-26.7-18l-23.4-9.7c-11.9-5.1-21.1-14.2-25.7-25.7l-9.7-23.4c-4.1-10.1-10.1-18.8-18-26.7-15.5-15.4-36.1-24.1-58.6-24.1-22 0-42.7 8.7-58.8 24.3L87.9 172.8-52.5 313.3c-32.6 32.6-32.6 84.9 0 117.5 7.8 7.8 16.6 13.8 26.7 18l23.4 9.7c11.9 5.1 21.1 14.2 25.7 25.7l9.7 23.4c4.1 10.1 10.1 18.8 18 26.7l33 33c3.2 3.2 7.8 5.1 12.4 5.1 4.6 0 8.7-1.8 12.4-5.1l11.5-11.5 58.3 58.3c3.2 3.2 7.8 5.1 12.4 5.1s8.7-1.8 12.4-5.1l310.3-310.3c6.2-7 6.2-17.6-.7-24.5zM75.1 509.8c-4.6-4.6-7.8-9.7-10.5-15.6l-9.7-23.4c-8.3-20.2-24.3-35.8-44.5-44.5l-22.9-9.1c-5.9-2.3-11-5.9-15.6-10.5-18.8-18.8-18.8-49.6 0-68.4l70.7-71.2L236.8 72.8c9.1-9.1 21.1-14.2 34.4-14.2 12.9 0 25.3 5.1 34.4 14.2 4.6 4.6 7.8 9.7 10.5 15.6l9.7 23.4c8.3 20.2 24.3 35.8 44.5 44.5l23.4 9.7c5.9 2.3 11 5.9 15.6 10.5l20.6 20.6L96.2 530.9l-21.1-21.1zm115.2 67.5l-46.4-46.4 286-286 46.3 46.3-285.9 286.1z"/>
  <path d="M122.9 434.1c-5.5 0-10.1 1.8-14.2 5.9-3.7 3.7-5.9 8.7-5.9 14.2s2.3 10.1 5.9 14.2c3.7 3.7 8.7 5.9 14.2 5.9s10.1-1.8 14.2-5.9c7.8-7.8 7.8-20.2 0-28-3.7-4.5-8.8-6.3-14.2-6.3zm2.2 22c-1 1-3.2 1-4.1 0-1.4-1.4-1.4-3.2 0-4.1.4-.4 1.4-1 2.3-1 1 0 1.4.4 2.3 1 .4.4 1 1.4 1 2.3-.5.4-1 .8-1.5 1.8zM352.8 204c-5.5 0-10.1 1.8-14.2 5.9-7.8 7.8-7.8 20.2 0 28 3.7 3.7 8.7 5.9 14.2 5.9s10.1-1.8 14.2-5.9c7.8-7.8 7.8-20.2 0-28-4-3.6-9.1-5.9-14.2-5.9zm2.3 22c-1 1-3.2 1-4.1 0-1.4-1.4-1.4-3.2 0-4.1.4-.4 1.4-1 2.3-1s1.4.4 2.3 1c.5 1 .5 2.8-.5 4.1zM238 318.8c-5.5 0-10.1 1.8-14.2 5.9-3.7 3.7-5.9 8.7-5.9 14.2s1.8 10.1 5.9 14.2c3.7 3.7 8.7 5.9 14.2 5.9s10.1-1.8 14.2-5.9c7.8-7.8 7.8-20.2 0-28-3.5-4.5-8.6-6.3-14.2-6.3zm2.4 21.6c-1 1-3.2 1-4.1 0-1.4-1.4-1.4-3.2 0-4.1.4-.4 1.4-1 2.3-1 1 0 1.4.4 2.3 1 .4.4 1 1.4 1 2.3-.7.9-1.1 1.3-1.5 1.8z"/>
</svg>
