<svg xmlns="http://www.w3.org/2000/svg" viewBox="-55 -48.4 595.4 713.6">
  <path d="M463.7 168.5c-11.8-13.7-18-28.6-18-44.7 0-19.3 8.6-37.9 23-51.6 14.2-10.5 21.1-23.6 21.1-37.9 0-28.6-28-50.3-82.6-64.7-44.1-11.8-102.5-18-164-18s-119.9 6.2-164 18C23.3-15.5-4.7 6.3-4.7 34.3c0 13.7 6.9 25.5 19.3 36.1 15.5 13.7 24.9 32.9 24.9 52.9 0 16.1-6.2 31.6-18 44.7-49 55.3-76.5 126.2-76.5 199.5 0 164 133.7 297.7 297.7 297.7s297.7-133.7 297.7-297.7c-.2-73.5-27.5-144.2-76.7-199zM242.5-1.8c111.8 0 184 21.7 198.9 36.1 0 0-.6.6-1.3.6l-.6-.6c-1.3 1.3-2.5 2.5-3.7 3-22.4 13.7-91.4 32.3-193.9 32.3-103.2 0-172.8-18.7-194.5-32.9l-3-3v.6l-.6-.6C58.5 20.6 130.7-1.8 242.5-1.8zm0 620.2C103.9 618.4-8.6 506-8.6 367.3c0-62.1 23-121.9 64.7-167.8C76 177.8 86 151.1 86 123.6c0-8.1-.6-15.5-2.5-23 43.5 10.5 99.5 16.8 158.4 16.8s115-6.2 158.4-16.8c-1.3 7.5-2.5 14.9-2.5 23 0 28 10.5 54.1 29.9 76.5 41.7 46 64.7 105.6 64.7 167.8 1.2 138.1-111.9 250.5-249.9 250.5z"/>
  <path d="M374.9 561.2c-5 0-9.9-1.9-14.2-5-9.9-8.1-11.8-23-3.7-32.9 35.5-44.7 54.1-98.2 54.1-156 0-62.1-23-121.9-64.7-167.8-8.1-8.6-14.2-18-19.3-28-5.6-11.8-.6-25.5 10.5-31.1 11.8-5.6 25.5-.6 31.1 10.5 3 6.2 6.9 11.8 11.8 17.4 49 54.6 76.5 125.5 76.5 198.9 0 67.7-22.4 131.8-64.7 185.1-3.8 6.5-10.5 8.9-17.4 8.9z"/>
</svg>
