<svg enable-background="new -25.268 46.371 243.291 100" height="100" viewBox="-25.268 46.371 243.291 100" width="243.291" xmlns="http://www.w3.org/2000/svg"><g fill="#009bf0"><path d="m110.108 46.371c-11.397 0-20.712 9.299-20.712 20.697v41.64c0 11.4 9.314 17.199 20.712 17.199 11.395 0 20.463-5.802 20.696-17.199v-41.64c-.233-11.398-9.301-20.697-20.696-20.697zm3.469 59.073c0 2.098-1.604 3.033-3.469 3.033-2.101 0-3.73-.936-3.73-3.033v-39.076c0-2.084 1.633-3.717 3.73-3.717 1.865 0 3.469 1.633 3.469 3.717z"/><path d="m30.79 118.476c-5.582-1.166-10.697-2.333-15.812-3.965l.232-17.199-9.546-37.212c4.429-1.398 8.847-2.566 13.496-3.73l3.716 12.33 5.35-14.648c4.649-.931 10.231-1.864 15.129-2.796l-12.565 44.189z"/><path d="m159.868 101.51v16.966c-7.666 1.633-16.5 3.031-24.867 4.198v-73.053c5.336.699 10.929 1.398 16.034 2.331v51.395s3.733-.701 8.833-1.837z"/><path d="m163.834 54.284c5.099 1.152 11.165 2.55 16.266 3.95v55.811c-5.101 1.399-11.165 2.799-16.266 3.963z"/><path d="m5.664 77.077c-2.318.688-4.185 1.388-6.502 2.087v35.579c28.597 9.532 61.623 15.127 97.216 15.127 35.127 0 68.152-5.361 96.285-14.895v-37.209l-8.834-2.785v-16.046c12.332 3.716 23.73 8.134 34.193 13.016v15.828l-9.533-4.197v42.094c-31.393 13.029-70.25 20.696-112.111 20.696-42.327 0-81.402-7.899-113.276-21.396v-39.063c-2.784 1.167-5.585 2.317-8.368 3.484v-17.68c8.368-3.95 17.213-7.433 26.745-10.466z"/><path d="m62.651 65.216v11.861h3.03c2.784 0 3.485-2.33 3.485-3.961v-5.816c0-2.785-3.485-2.55-3.485-2.55zm0 58.154c-5.35-.696-10.699-1.396-15.814-2.333v-70.017c6.282-1.165 12.797-2.084 19.53-2.551 14.664-1.399 18.38 8.833 18.612 11.165v21.165c-.466 3.484-4.415 4.882-4.415 4.882s4.415 1.865 4.415 6.516v33.013c-5.349-.233-10.465-.7-15.812-1.164v-26.27c0-3.497-1.866-4.415-3.717-4.415h-2.798z"/></g></svg>