<svg xmlns="http://www.w3.org/2000/svg" viewBox="0 0 120.6 82.7"><style>.st0{display:none;}</style><g id="Ebene_3_Kopie"><path d="M110.2 16.8c-11.8 1.3-18.6.7-26.1-1.4-11.7-3.3-43-17.8-58.6-15C15.9 2.1 7.1 8 3.3 20.5c-1.1 3.6-.1 4 2.1 1 4.1-5.8 8.6-9 13.5-10.5-1.3 6-5.8 10.5-10.2 14.3-4.8 4-7.1 9-6.7 18.8 0 0 .5 7.4 1.9 0 1.1-5.5 2-8.1 5.8-11 2.7-1.8 5.5-2.2 7.9-3.1 4.3-1.7 9.2-3.6 11.7-6.4.3.2.6.2.9.3-1.2 1.3-1.9 2.6-2.3 4.2-.5 2.3.1 3.8.7 4.5.9 1.1 2.3 1.7 4 1.7 1.7 0 3.5-.5 5.4-1.5.1 1.1.5 2 1.1 2.8 1.1 1.3 3 2 5.3 2 1 0 2.1-.1 3.3-.4.5 2.6 2.5 4.1 5.4 4.1 1.8 0 3.9-.6 5.9-1.7.2 1.2.6 2.4 1.3 3.3 1 1.4 2.4 2.2 3.9 2.2 2.8 0 4.9-1.3 7.5-4 .4 2 .9 3 1.8 4 .7.7 2.2 1.4 3.5 1.4 3.6 0 6.9-4.4 8.8-8.5 0 2.9 0 6.8.9 7.7.3.3.6.4.8.4.9 0 1.3-.8 2.6-5.7 1.7-6.8 4-8.3 4.7-8.3 0 0 .2 0 .3.2.5.5.9 1.4.8 3.9-.1 1.7-.5 3.6-1.3 6.4-.1.3-.1.7.1.9.2.1.6.1.9 0 1.1-.8 2.5-2.2 4.4-6.5 2.9-6.5 4.5-6.6 4.6-6.6.1 0 .2.1.3.2.4.6.4 3.3-.5 6.8-.2.6-.5 1.6.1 1.7.5.1 1-.6 1.3-1.1 3.8-7.3 4.7-11.7 3.3-14-.5-.9-1.4-1.3-2.5-1.3-2.4 0-5.8 2.4-7.9 5.4-.1-.4-.4-.8-.6-1.1-.5-.6-1.3-.9-2.1-.9-2 0-4.4 1.5-6 3.2-.1-.9-.4-1.8-1.4-1.8-.2 0-.4 0-.7.1-1 .4-1.7 2.4-3.2 5.8-1.4 3.1-3.8 7.4-5.5 7.7H79c-.1 0-.4-.1-.6-.4-1-1.9-.6-5.8 3-11.6.1-.2.2-.5.1-.7-.3-.2-.5-.4-.8-.4h-.2c-4.1 1.4-6.9 4.9-9.1 7.7-1.7 2.1-3.1 3.9-4.3 3.9-.3 0-.8-.1-1.1-.3-.7-.5-.9-1.1-1-1.8-.2-2.1 1.3-4.8 3-6.6 1.4-1.6 3-2.4 2.7-3.1-.1-.2-.3-.3-.8-.3-.3 0-.6 0-1 .2-2.8.8-5.2 3.2-7.2 5.5-1.7 2-3.6 3.7-5.2 3.7-.5 0-.9 0-1.4-.4-.3-.2-.3-1-.3-1.3.3-2.1 3-6 7.9-7.5.2-.1 1-.3 1-.6 0-.5-.7-.7-1.1-.8-.7-.1-1.3-.1-1.9-.1-1 0-1.9.1-2.7.3-.7.2-1.5.4-2.7.8-2 .8-3.7 2.1-5.4 3.4-.9.7-2.1 1.1-3.2 1.1s-2.1-.4-2.4-1.1c-.3-.7.1-1.5.6-2 1-1.2 2.5-1.8 4.8-1.8 1.1 0 2.2.1 3.2.2.8.1 1.5.1 2.2.1.6-.1 2.6-.7 2.8-1.1.1-.1.2-.4 0-.6-.1-.1-.4-.2-.5-.2-1.2-.2-2.3-.5-3.5-1.1-1.7-.8-3.5-1.7-5.7-1.7-1.7 0-3.5.5-5.5 1.6-1.2.7-2.3 1.6-3.2 2.3-1.4 1.2-2.6 2.2-4 2.2-.4 0-.7-.1-1.1-.2-.2-.1-.5-.2-.5-.7-.1-1.8 2.7-5.7 9-8.4.3-.2.8-.4.7-.7-.1-.3-.6-.5-.8-.6-.5-.2-1.1-.3-1.8-.3-1.3 0-2.8.4-4 .7-1.2.3-2.2.5-3.1.5-1.1 0-1.8-.3-2.2-.8-.5-.6-.5-1.6-.4-2.3 0-.3.2-1-.4-1.1-.4-.1-.8.4-.9.6-2 3.5-4.8 6.1-8.3 7.8 1.9-3.7 2.5-8.2 2.8-13 9.1-.4 19.5 3.9 31.4 8.7 24.6 9.8 40.4 7 55.1.2 3.4-1.6 3.1-2.6-.8-2.2z"/><path class="st0" d="M-80.2-17.5c25.2-5.2 41.6-19 51.9-36.6C-30.2-43-23.6-36-3.8-41.6c6.2-1.8 14.5-3.8 20.3-1.6-30.7 13.6-41.3 35.5-31.4 39C-2.1.3 4.8-12.7 18.5-20.3c25.2-14.2 36.7 2.2 53.2 5.5-8.9 5.3-35.7-7.9-48.3 7.3-11 13.3 8.5 21.6 22.3 11.4s25-18 45.3-15.7C66-4.2 54.3 20 61.6 25 79.5 36.9 90.9-2.2 114.4-8c20.5-5.1-33.4 27.8-11.6 44 15.4 11.4 26.4-31.6 56.3-41.6-10.3 14.6-18.3 51.2-5.6 48.9s25.9-47.4 33.1-50.5c5.1-2.2 3.9 7 4.6 11 7.5-13.4 34.6-27 33.1-3.6 14.4-29.4 65-48.2 25 29.6 9.4-27 .5-52.7-18.4-4.8-6.2 15.6-13.1 20.2-17.2 22.3 2.9-9.6 4.7-17.3 5.1-24.4 1.4-25.1-13.4-32.4-25.4 14.5-11.5 45.3-15.1 2.1-12.4-19.8-26 67.6-57.1 43.6-50.4 10.6-30.2 42.1-49.4 22.4-49.6 2.5-18 11.7-40.7 11.9-42-7.8C17.6 29.2.9 21.9 3.3 5.2-20 18.9-39.5 13-34.9-7.2c1.9-8.6 6.9-15.3 16.6-22-6.7 3.5-13.3 4.3-14.1.4C-45.2-11.3-86-2.5-99.7 6.7c-13.2 8.9 19.5-24.2 19.5-24.2z"/></g><g id="Ebene_2"><path d="M120.6 71.1l-6.5-5.3-16.6 3.6 8.4-10.3-5.5-4.4-19.1 23.5 5.1 4.2.3.3.2-.3 8.8-10.7-.2 10.7h6.4l-.1-8zM83.8 68.6c-.3-1.4-.9-2.8-1.8-4.2-1-1.5-2.4-2.9-4.2-4.4-1.4-1.1-2.7-2.1-3.9-2.9-1.2-.8-2.3-1.6-3.4-2.3L51.6 78l5.5 4.4 6.3-7.7c.4.3.7.6 1 .9.3.2.6.5 1 .9.2.1.3.3.5.4.1.1.3.2.5.4l-1.1 5.3h6.5l.4-2.9c1.9.3 3.7.1 5.4-.5 1.7-.6 3.1-1.6 4.2-3 .9-1.1 1.5-2.2 1.9-3.5.3-1.4.3-2.8.1-4.1zm-8 3c-1 1.2-2.1 1.8-3.4 1.8-1.3 0-2.6-.6-3.9-1.6-.3-.3-.6-.5-.8-.7l-.8-.8 5.3-6.5c.4.3.8.5 1.1.7.3.2.7.5 1.1.9 1.2 1 1.9 2 2.2 3.1.3 1.1 0 2.1-.8 3.1zM26.7 63.4l-6.3 7.9V54.7l-7 8.7L7 71.3V39.6H0v42.8h7l6.4-7.9v7.9h7l8.1-10 5.2-6.6V54.7zM55.3 71.7l4-5-14.8-12.1-19 23.4 5.4 4.4H41l-6-4.9 3.7-4.6 8.6 7 3.8-4.7-8.6-7 3.4-4.2 9.4 7.7z"/></g></svg>