<svg viewBox="0 0 630 630" xmlns="http://www.w3.org/2000/svg" xmlns:serif="http://www.serif.com/" fill-rule="evenodd" clip-rule="evenodd" stroke-linejoin="round" stroke-miterlimit="1.4">
  <path fill="none" d="M0 0h630v630H0z"/>
  <clipPath id="a">
    <path serif:id="ArtBoard3" d="M0 0h630v630H0z"/>
  </clipPath>
  <g fill-rule="nonzero" clip-path="url(#a)">
    <path d="M368 336a50.6 50.6 0 1 0-100.6-9.6c-.5 7.4.6 14.6 3 21.5l-80.7 66.4A16.5 16.5 0 0 0 184 425l-7.1 67.6-69.3 57a37 37 0 0 0-38.1 5.4 37 37 0 0 0-4.8 52.1 34 34 0 0 0 18.2 12.2 37 37 0 0 0 46-45l74-61.3c3.4-2.7 5-6.6 5.8-10.8l7-67.6 74.6-61.4a50.7 50.7 0 0 0 59.9-3c10.1-8.9 16.9-21 18-34.2zm-39.6 7.6a16 16 0 0 1-23-2.3c-3-3-3.7-7.6-3.6-12a15 15 0 0 1 6-11c4.3-3.7 9.5-5 15-3.4 3.4 1 6.2 2.8 8 5.6 3 3 3.7 7.5 3.6 11.9a15 15 0 0 1-6 11.2zm34.3-161a37.5 37.5 0 0 0-18-12.2 37 37 0 0 0-47.2 32.4c-.1 4.3.1 8.8 1.1 12.8L157.5 331l-41.7-3.7a49.8 49.8 0 0 0-35.4-37.6c-15.9-4.6-33.3-1-46 9.3a51.2 51.2 0 0 0-18 34.3 50.6 50.6 0 0 0 82 43.8c6.3-5.1 11-11.5 14.1-18.4l48.6 4.5c4.3.1 8.3-.8 11.8-3.6l145.6-119.9c1.6.4 3.3 1.5 4.8 1.9a37 37 0 0 0 33.9-7 36.4 36.4 0 0 0 5.5-52zM77.1 350.8a16 16 0 0 1-23-2.3c-3-3-3.8-7-3.6-11.9a15 15 0 0 1 6-11.2c4.2-3.6 9.5-4.8 15-3.2 3.4 1 6.1 2.8 8 5.5 5.5 7 4.6 17.5-2.4 23z"/>
    <path d="M528.7 191.7a37.5 37.5 0 0 0-26.4-39.5 37 37 0 0 0-46.6 43.4l-47.4 38.6a16.5 16.5 0 0 0-5.8 10.8l-13 134.7-33.2 27-51-3.4c-4.3-.1-8.3.8-11.8 3.5l-41 33.5a16.5 16.5 0 0 0-5.9 10.8l-4 39.7c-8 1.6-15.5 5-22 10.3a51.2 51.2 0 0 0-18 34.2 50.6 50.6 0 0 0 82.6 43.8 51.2 51.2 0 0 0 18-34.2 53 53 0 0 0-11.5-36.8 50 50 0 0 0-17-13.3l3.7-34.4 30.5-25.2 50.6 4.4c4.3 0 8.3-.8 11.8-3.6l43.5-36c3.5-2.8 5.1-6.7 5.8-10.8l13-134.6 41.1-34c1.8 1 4.4 1.8 6.3 2.3a41 41 0 0 0 33.9-7c6.5-5.7 13.1-14 13.8-24.2zM269.5 541.6a15 15 0 0 1-6 11.1 16 16 0 0 1-23-2.3c-3-2.9-3.7-7.7-3.6-11.8.2-4.1 2.5-8.5 6-11.2 4.2-3.6 9.5-4.8 15-3.3 3 1 6 3 8 5.6 3 3 3.7 7.5 3.6 11.9zM435.3 64.3a50.6 50.6 0 0 0-82.6-43.8 51.2 51.2 0 0 0-18 34.2c-.6 8 .7 16.1 3.8 23.6L202.1 190.2a37 37 0 0 0-44.6 57.4 37.5 37.5 0 0 0 18.1 12.2 37 37 0 0 0 47.2-32.4c.7-4.2.2-8-1-11.6l137.6-113a51 51 0 0 0 57.9-4.3 51.2 51.2 0 0 0 18-34.2zM395.6 72a16 16 0 0 1-23-2.3c-3-3-3.8-7.5-3.6-11.8a15 15 0 0 1 5.9-11.2c4.3-3.7 9.5-4.9 15-3.3a14 14 0 0 1 8 5.6c3 2.9 3.8 7.6 3.6 11.8-.1 4.1-2.4 8.5-6 11.2z"/>
    <path d="M613.6 404.6a50.6 50.6 0 0 0-96.7-24.8l-27.4-2.4c-4.3-.2-8.4.8-11.9 3.5l-94 77.5a37 37 0 0 0-46.2 56.5 34 34 0 0 0 18 12.2c11.5 3.3 24 1 33.8-6.9a38.6 38.6 0 0 0 12.8-36l90.5-74.7 22 2a50.6 50.6 0 0 0 81.1 27.3 51.2 51.2 0 0 0 18-34.2zm-39.7 7.7a16 16 0 0 1-23-2.3c-3-3-3.7-7.5-3.6-11.8a15 15 0 0 1 6-11.2c4.2-3.7 9.5-4.9 15-3.3 3.4 1 6 3 8 5.6 3 2.9 3.7 7.5 3.6 11.8a15 15 0 0 1-6 11.2z"/>
  </g>
</svg>
