<svg viewBox="0 0 630 630" xmlns="http://www.w3.org/2000/svg" fill-rule="evenodd" clip-rule="evenodd" stroke-linejoin="round" stroke-miterlimit="1.4">
  <path fill="none" d="M0 0h630v630H0z"/>
  <g fill-rule="nonzero">
    <path d="M609 83.8l-58.6-75c-5.3-6.7-15-8-21.7-2.7L161.8 291.5l-128.7 100a41.2 41.2 0 0 0-7 58.1l125.5 161.6a41.2 41.2 0 0 0 58.3 7l108.3-84.4a41.2 41.2 0 0 0 7-58.2l-6.1-8 10.7-56.8 48.4-4c7.5-.4 13.6-6.7 14.1-14.2l5.4-53.7 47.4-3.6c7.7-.4 13.4-6.7 14.3-13.7l5.7-56 53.4-8a16 16 0 0 0 13.2-12.9l9.4-60.4 54.6-9.4a15.6 15.6 0 0 0 13-14.6l4-66.5c-.3-3.3-1.2-6.9-3.9-10zM299.2 509.5L190.9 594a10.3 10.3 0 0 1-6.2 2.2 9.5 9.5 0 0 1-8-4L50.5 430.5a9.9 9.9 0 0 1 1.8-14.2l116.4-90.6 56 72 65.2 83.8 10.7 13.7a10.3 10.3 0 0 1-1.5 14.3zm279.2-363.2l-53.3 9c-6.7 1.2-12 6.1-13 12.8l-9.3 60-53.7 8c-7.1 1-12.5 6.7-13.3 13.7L430 305l-48 4.5c-7.5.4-13.6 6.7-14.1 14.2l-5.3 53.7L315 381c-7.1.4-13 5.8-14.2 13l-7.6 41.6-61-78.6-39-50.2L535.3 40.8l45.7 57.7-2.5 47.8z"/>
    <path d="M146.3 382.5l-62 48.5 93.5 120.3 4 5h10.3l52.5-40.9 9.8-7.6-98.1-125.2h-10zm43.1 144.8L117.5 435l30.7-24 71.4 91.8-30.2 24.6z"/>
  </g>
</svg>
