<svg clip-rule="evenodd" fill-rule="evenodd" stroke-linejoin="round" stroke-miterlimit="1.4" viewBox="0 0 630 630" xmlns="http://www.w3.org/2000/svg">
  <clipPath id="a">
    <path d="M0 0h630v630H0z"/>
  </clipPath>
  <path d="M0 0h630v630H0z" fill="none"/>
  <g clip-path="url(#a)">
    <path d="M126 177.3h-9.4c-10-.2-18.8-9.5-17.9-19.6.8-8.6 8.4-16 17.3-16.4H174.3c9.8.5 18.1 9.7 17.3 19.6-.8 8.6-8.4 16-17.3 16.4H162v15.9a82.7 82.7 0 0 1 50.7 34.6 82 82 0 0 1 13.4 44.4v312.4c-.2 1.4-.2 2.7-.5 4-1.2 5.3-5 10-9.7 12.2-3.3 1.6-4.3 1.4-7.8 1.8h-126c-3.6-.4-4.6-.2-7.9-1.8-4.8-2.3-8.5-7-9.7-12.2-.3-1.3-.3-2.6-.5-4V272.2a82.9 82.9 0 0 1 62-78.7zm379.4-29V102a19 19 0 0 1 6-13.5L570.7 36c3.5-3 7.9-4.6 12.6-4.6 9.2.6 17.2 8.7 17.3 17.7.1 5.2-2.2 10.3-6 13.8L541.4 110v38.2H554.2l2.3.3A18.4 18.4 0 0 1 571 164l.1 2.4c0 58.7.2 117.3 0 176a49 49 0 0 1-30.2 44 89.5 89.5 0 0 1-12.5 42 70 70 0 0 1-24.8 23.4c-22.2 12.5-48.5 15-73.7 16.1l-6.4.3v116.5a24 24 0 0 1-1.7 7.8 18.2 18.2 0 0 1-8.4 8.4c-3.3 1.6-4.3 1.4-7.9 1.8h-126a24 24 0 0 1-7.8-1.8 18.2 18.2 0 0 1-8.4-8.4c-1.6-3.2-1.4-4.3-1.8-7.8V272.2a83 83 0 0 1 63-79v-15.9H315c-9-.2-17.1-7.5-18-16.4a18.5 18.5 0 0 1 17.4-19.6h58.2c11.7.6 20.7 14 16 25.1a18.6 18.6 0 0 1-16.6 10.9h-11.6v16.1a83 83 0 0 1 58.6 52.4 82 82 0 0 1 4.4 26.4v160a151 151 0 0 0 56.6-9 37.7 37.7 0 0 0 22.5-25.2c1.1-4 1.8-8.2 2.2-12.4a46.8 46.8 0 0 1-29-43.6V166.3c0-1 0-1.3.2-2.4 1-7.7 7.5-14.4 15.4-15.4 1-.2 1.4-.2 2.4-.2zm-360.6 79a46.2 46.2 0 0 0-44.7 45v294.3h90c0-98.2.4-196.4 0-294.6a46.1 46.1 0 0 0-45.3-44.7zm242.7 221.5V272a46.2 46.2 0 0 0-45.4-44.7 46.1 46.1 0 0 0-44.7 45v294.3h90l.1-114.6a16 16 0 0 1 0-3.2zM535 333h-23.4l.1 9.2c.2 7.7 9 13.7 16.4 10.5 4-1.8 6.9-6 7-10.6zm-23.7-36H535V184.3h-23.3c0 37.6-.5 75.1-.4 112.7z" fill-rule="nonzero"/>
  </g>
</svg>
