<svg viewBox="0 0 630 630" xmlns="http://www.w3.org/2000/svg" xmlns:serif="http://www.serif.com/" fill-rule="evenodd" clip-rule="evenodd" stroke-linejoin="round" stroke-miterlimit="1.4">
  <path fill="none" d="M0 0h630v630H0z"/>
  <clipPath id="a">
    <path serif:id="ArtBoard2" d="M0 0h630v630H0z"/>
  </clipPath>
  <g clip-path="url(#a)">
    <path d="M597.9 446.1h-70.1c-5-42.2-3-79.8-.9-114a689 689 0 0 0 2.1-50.6h3.4v31.3a32 32 0 0 0 31.7 32.5 31.8 31.8 0 0 0 31.7-32.5V180.2a32 32 0 0 0-31.7-32.5 31.8 31.8 0 0 0-31.7 32.5v29.5h-16.5c-3.8-8.5-9.3-16.1-15.2-24.5a78.9 78.9 0 0 0-40.1-29.5v-54.1c0-5.9-4.6-10.6-10.6-10.6s-10.6 4.6-10.6 10.6v47.7c-12.6-3-28.3-3.8-40.6-3.8-27 0-55.8 3.8-86.5 7.6-31.3 4.2-63.4 8-93.7 8-25.8 0-62.5-21.1-74.3-29.1-2.6-1.7-5.5-3-8.9-3H60.8c-8.9.4-18.2 8-18.2 16.9v226c0 8.9 9.3 15.2 18.2 15.2h19.8v59H33.3c-8.8 0-16 9.3-16 18.2v57.8c0 8.9 7.2 16.9 16.1 16.9h564.5c8.9 0 14.8-8 14.8-16.9v-57.8c-.1-8.9-6.4-18.2-14.8-18.2zM562 180.2c0-2.6 1.7-4.2 4.2-4.2 2.6 0 4.2 2.1 4.2 4.2v132.5c0 2.6-1.7 4.2-4.2 4.2a4.2 4.2 0 0 1-4.2-4.2V180.2zm-29.6 50.6v29.5h-4.6c-.9-12.6-2.1-16.9-4.6-29.5h9.2zM76.5 159.1H131c13.1 8.5 53.6 33 87.8 33 32.5 0 65.8-3.8 98-7.6 29.5-3.8 57.8-7.2 82.7-7.2 38.4 0 62.1 8.9 76.4 27.8 24.9 33 22.4 73.4 19 125.4-2.1 34.2-4.2 73.4.4 115.7H348.8c13.1-46.5 35-133.8 8-170.1-23.2-30.8-92.9-41.4-145.3-41.4-28.3 0-64.6 1.7-78.9 16.1-19.8 19.8-25.4 76.9-27 102.1H76.5V159.1zM101.8 387h18.6c8.5 0 15.6-6.7 16.1-15.2.9-38.4 8-86.5 18.2-96.7 3.4-2.6 21.1-8 56.6-8 54.9 0 107.7 11.8 119.9 27.8 16.1 21.1.9 100.5-16.1 151.2H101.8V387zm481.3 118.3H46.9v-25.4h536.2v25.4z" fill-rule="nonzero"/>
  </g>
</svg>
