<svg viewBox="0 0 630 630" xmlns="http://www.w3.org/2000/svg" xmlns:serif="http://www.serif.com/" fill-rule="evenodd" clip-rule="evenodd" stroke-linejoin="round" stroke-miterlimit="1.41">
  <path fill="none" d="M0 0h630v630H0z"/>
  <clipPath id="a">
    <path serif:id="ArtBoard4" d="M0 0h630v630H0z"/>
  </clipPath>
  <g fill-rule="nonzero" clip-path="url(#a)">
    <path d="M618.02 271.1l-60.43-60.43 11.92-11.92a18.47 18.47 0 0 0 5.29-12.85 18.2 18.2 0 0 0-5.29-12.85l-34.2-34.2a84.72 84.72 0 0 0-27.68-18.67l-24.25-10.05c-12.34-5.29-21.87-14.72-26.64-26.64l-10.06-24.25c-4.25-10.47-10.47-19.5-18.65-27.68a85.34 85.34 0 0 0-60.74-24.98c-22.8 0-44.26 9.02-60.95 25.19L177.39 160.7 31.86 306.34a85.83 85.83 0 0 0 0 121.8 84.71 84.71 0 0 0 27.68 18.66l24.25 10.05c12.34 5.29 21.87 14.72 26.64 26.64l10.06 24.25c4.25 10.47 10.47 19.49 18.65 27.68l34.2 34.2a18.47 18.47 0 0 0 12.86 5.3c4.77 0 9.02-1.88 12.86-5.3l11.92-11.92 60.43 60.43a18.47 18.47 0 0 0 12.85 5.3c4.77 0 9.02-1.87 12.85-5.3L618.75 296.5a18.4 18.4 0 0 0-.73-25.4zm-453.9 238.92c-4.76-4.76-8.08-10.05-10.88-16.17L143.2 469.6c-8.6-20.94-25.2-37.1-46.13-46.13l-23.74-9.43c-6.11-2.38-11.4-6.12-16.17-10.88-19.48-19.49-19.48-51.42 0-70.9l73.29-73.8 201.3-201.4a49.73 49.73 0 0 1 35.65-14.72 50.44 50.44 0 0 1 35.65 14.72c4.77 4.77 8.09 10.05 10.89 16.17l10.05 24.25c8.6 20.94 25.2 37.11 46.13 46.13l24.25 10.05c6.12 2.39 11.4 6.12 16.17 10.89l21.36 21.35-345.9 346-21.87-21.88zM283.53 580l-48.1-48.1L531.9 235.45l47.99 47.99-296.35 296.55z"/>
    <path d="M213.67 431.56c-5.7 0-10.47 1.86-14.72 6.11a20.69 20.69 0 0 0-6.11 14.72c0 5.7 2.38 10.47 6.11 14.72a20.68 20.68 0 0 0 14.72 6.12c5.7 0 10.47-1.87 14.72-6.12a20.4 20.4 0 0 0 0-29.02c-3.84-4.67-9.12-6.53-14.72-6.53zm2.28 22.8c-1.04 1.04-3.32 1.04-4.25 0-1.45-1.45-1.45-3.32 0-4.25a3.92 3.92 0 0 1 2.39-1.03c1.03 0 1.45.41 2.38 1.03a3.92 3.92 0 0 1 1.04 2.39 4.9 4.9 0 0 0-1.56 1.86zm236.02-261.3c-5.7 0-10.47 1.86-14.72 6.1a20.4 20.4 0 0 0 0 29.03 20.69 20.69 0 0 0 14.72 6.12c5.7 0 10.47-1.87 14.72-6.12a20.4 20.4 0 0 0 0-29.02c-4.15-3.73-9.43-6.12-14.72-6.12zm2.38 22.8c-1.03 1.03-3.31 1.03-4.25 0-1.45-1.46-1.45-3.32 0-4.25a3.92 3.92 0 0 1 2.39-1.04c.93 0 1.45.41 2.38 1.04.52 1.03.52 2.9-.52 4.24zm-121.37 96.19c-5.7 0-10.47 1.86-14.72 6.11a20.69 20.69 0 0 0-6.12 14.72c0 5.7 1.87 10.47 6.12 14.72a20.69 20.69 0 0 0 14.72 6.11c5.7 0 10.47-1.86 14.71-6.11a20.4 20.4 0 0 0 0-29.02c-3.62-4.67-8.91-6.53-14.71-6.53zm2.48 22.38c-1.03 1.04-3.31 1.04-4.25 0-1.45-1.45-1.45-3.31 0-4.25a3.93 3.93 0 0 1 2.39-1.03c1.03 0 1.45.41 2.38 1.03a3.92 3.92 0 0 1 1.04 2.39c-.73.93-1.14 1.35-1.56 1.86z"/>
  </g>
</svg>
