<svg viewBox="0 0 630 630" xmlns="http://www.w3.org/2000/svg" xmlns:serif="http://www.serif.com/" fill-rule="evenodd" clip-rule="evenodd" stroke-linejoin="round" stroke-miterlimit="1.4">
  <path fill="none" d="M0 0h630v630H0z"/>
  <clipPath id="a">
    <path serif:id="ArtBoard5" d="M0 0h630v630H0z"/>
  </clipPath>
  <g fill-rule="nonzero" clip-path="url(#a)">
    <path d="M503.4 195.8a57.5 57.5 0 0 1-15.4-38.1c0-16.5 7.3-32.3 19.6-44 12.1-9 18-20.1 18-32.3 0-24.4-23.9-42.9-70.4-55.2-37.6-10-87.4-15.3-139.8-15.3-52.4 0-102.2 5.3-139.8 15.3C128 39 104.1 57.5 104.1 81.4c0 11.7 6 21.7 16.5 30.8a60.8 60.8 0 0 1 21.2 45c0 13.8-5.3 27-15.3 38.1a256.8 256.8 0 0 0-65.2 170c0 139.8 114 253.8 253.7 253.8 139.8 0 253.7-114 253.7-253.7a254.8 254.8 0 0 0-65.3-169.6zM314.8 50.6c95.3 0 156.9 18.5 169.6 30.8 0 0-.6.5-1.2.5l-.5-.5a11.6 11.6 0 0 1-3.1 2.5c-19.1 11.7-78 27.6-165.3 27.6-88 0-147.3-16-165.8-28l-2.5-2.6v.5l-.5-.5c12.5-11.2 74-30.3 169.3-30.3zm0 528.6a214 214 0 0 1-214-214c0-53 19.6-103.9 55.2-143a94.9 94.9 0 0 0 23.3-84.3c37 9 84.8 14.3 135 14.3s98-5.3 135-14.3c-1 6.4-2.1 12.7-2.1 19.6 0 23.9 9 46.1 25.5 65.2 35.5 39.2 55.1 90 55.1 143a212.7 212.7 0 0 1-213 213.5z"/>
    <path d="M427.7 530.5c-4.3 0-8.5-1.7-12.1-4.3a20.1 20.1 0 0 1-3.2-28 210.8 210.8 0 0 0 46.1-133c0-53-19.6-103.9-55.1-143a101.2 101.2 0 0 1-16.5-23.9 20 20 0 0 1 9-26.5 20 20 0 0 1 26.5 9 66 66 0 0 0 10 14.8A254.2 254.2 0 0 1 497.6 365c0 57.7-19 112.3-55.1 157.8-3.2 5.5-9 7.6-14.8 7.6z"/>
  </g>
</svg>
